[IMG]http://www.shotpix.com/images/03824583824916923887.jpg[/IMG]

General
Complete name                            : Mike Candys & Evelyn Ft. Patrick Miller - One Night In Ibiza [Music Video] 1080p [Sbyky].mp4
Format                                   : MPEG-4
Format profile                           : Base Media / Version 2
Codec ID                                 : mp42
File size                                : 90.2 MiB
Duration                                 : 2mn 48s
Overall bit rate mode                    : Variable
Overall bit rate                         : 4 497 Kbps
Encoded date                             : UTC 2011-07-14 09:29:51
Tagged date                              : UTC 2011-07-14 09:29:51

Video
ID                                       : 1
Format                                   : AVC
Format/Info                              : Advanced Video Codec
Format profile                           : High@L4.0
Format settings, CABAC                   : Yes
Format settings, ReFrames                : 1 frame
Codec ID                                 : avc1
Codec ID/Info                            : Advanced Video Coding
Duration                                 : 2mn 48s
Bit rate                                 : 4 346 Kbps
Maximum bit rate                         : 8 514 Kbps
Width                                    : 1 920 pixels
Height                                   : 1 080 pixels
Display aspect ratio                     : 16:9
Frame rate mode                          : Constant
Frame rate                               : 25.000 fps
Color space                              : YUV
Chroma subsampling                       : 4:2:0
Bit depth                                : 8 bits
Scan type                                : Progressive
Bits/(Pixel*Frame)                       : 0.084
Stream size                              : 87.2 MiB (97%)
Tagged date                              : UTC 2011-07-14 09:29:52

Audio
ID                                       : 2
Format                                   : AAC
Format/Info                              : Advanced Audio Codec
Format profile                           : LC
Codec ID                                 : 40
Duration                                 : 2mn 48s
Bit rate mode                            : Variable
Bit rate                                 : 144 Kbps
Maximum bit rate                         : 224 Kbps
Channel(s)                               : 2 channels
Channel positions                        : Front: L R
Sampling rate                            : 44.1 KHz
Compression mode                         : Lossy
Stream size                              : 2.93 MiB (3%)
Title                                    : IsoMedia File Produced by Google, 5-11-2011
Encoded date                             : UTC 2011-07-14 09:29:51
Tagged date                              : UTC 2011-07-14 09:29:52

Shared By Sbyky
[IMG]http://www.shotpix.com/images/76014917432015785852.gif[/IMG]
[IMG]http://www.shotpix.com/images/54100788659511547411.gif[/IMG]